<svg xmlns="http://www.w3.org/2000/svg" xmlns:xlink="http://www.w3.org/1999/xlink" width="206" height="206" version="1.1" viewBox="0 0 206 206"><defs><linearGradient id="color-1" x1="98.579" x2="240" y1="180" y2="321.421" gradientUnits="userSpaceOnUse"><stop offset="0" stop-color="#454545"/><stop offset="1" stop-color="#999"/></linearGradient><linearGradient id="color-2" x1="98.579" x2="240" y1="180" y2="321.421" gradientUnits="userSpaceOnUse"><stop offset="0" stop-color="#666"/><stop offset="1" stop-color="#212121"/></linearGradient><linearGradient id="color-3" x1="353.137" x2="240" y1="180" y2="66.863" gradientUnits="userSpaceOnUse"><stop offset="0" stop-color="#363636"/><stop offset="1" stop-color="#999"/></linearGradient></defs><g><g fill-rule="nonzero" stroke-dashoffset="0" stroke-linecap="butt" stroke-linejoin="miter" stroke-miterlimit="10" data-paper-data="{&quot;isPaintingLayer&quot;:true}" style="mix-blend-mode:normal"><path fill="url(#color-1)" stroke="url(#color-2)" stroke-width="6" d="M310.71068,109.28933c39.05243,39.05243 39.05243,102.36893 0,141.42136c-39.05243,39.05243 -102.36893,39.05243 -141.42136,0c-39.05243,-39.05243 -39.05243,-102.36893 0,-141.42136c39.05243,-39.05243 102.36893,-39.05243 141.42136,0z" transform="translate(-137,-77.00001)"/><path fill="url(#color-3)" stroke="none" stroke-width="1" d="M183.43146,236.56855c-31.24195,-31.24195 -31.24195,-81.89514 0,-113.13708c31.24195,-31.24194 81.89513,-31.24194 113.13708,0c31.24194,31.24195 31.24194,81.89514 0,113.13708c-31.24194,31.24195 -81.89513,31.24195 -113.13708,0z" transform="translate(-137,-77.00001)"/><text fill="#ebebeb" fill-rule="nonzero" stroke="none" stroke-dashoffset="0" stroke-linecap="butt" stroke-linejoin="miter" stroke-miterlimit="10" stroke-width="1" font-family="Sans Serif" font-size="40" font-weight="normal" text-anchor="start" transform="translate(-137,-77.00001) translate(187.46661,219.89528) scale(0.90794,0.90794)" xml:space="preserve" style="mix-blend-mode:normal"><tspan x="0" dy="0">START</tspan></text><text fill="#ebebeb" fill-rule="nonzero" stroke="none" stroke-dashoffset="0" stroke-linecap="butt" stroke-linejoin="miter" stroke-miterlimit="10" stroke-width="1" font-family="Sans Serif" font-size="40" font-weight="normal" text-anchor="start" transform="translate(-137,-77.00001) translate(218.55001,182.5) scale(1.875,1.875)" xml:space="preserve" style="mix-blend-mode:normal"><tspan x="0" dy="0">+</tspan></text></g></g></svg>