<svg version="1.1" xmlns="http://www.w3.org/2000/svg" xmlns:xlink="http://www.w3.org/1999/xlink" width="313.96991" height="97.552" viewBox="0,0,313.96991,97.552"><defs><linearGradient x1="83.01504" y1="240.00001" x2="396.98496" y2="240.00001" gradientUnits="userSpaceOnUse" id="color-1"><stop offset="0" stop-color="#361636"/><stop offset="1" stop-color="#996999"/></linearGradient><linearGradient x1="388.78731" y1="240.00001" x2="91.21269" y2="240.00001" gradientUnits="userSpaceOnUse" id="color-2"><stop offset="0" stop-color="#361636"/><stop offset="1" stop-color="#996999"/></linearGradient><linearGradient x1="100.84493" y1="240.00001" x2="379.15507" y2="240.00001" gradientUnits="userSpaceOnUse" id="color-3"><stop offset="0" stop-color="#361636"/><stop offset="1" stop-color="#996999"/></linearGradient></defs><g transform="translate(-83.01505,-191.22401)"><g data-paper-data="{&quot;isPaintingLayer&quot;:true}" fill-rule="nonzero" stroke="none" stroke-linecap="butt" stroke-linejoin="miter" stroke-miterlimit="10" stroke-dasharray="" stroke-dashoffset="0" style="mix-blend-mode: normal"><path d="M87.60875,288.77601c-2.53703,0 -4.5937,-2.71481 -4.5937,-6.06369v-85.42462c0,-3.34889 2.05667,-6.06369 4.5937,-6.06369h304.78251c2.53703,0 4.5937,2.71481 4.5937,6.06369v85.42462c0,3.34889 -2.05667,6.06369 -4.5937,6.06369z" fill="url(#color-1)" stroke-width="0"/><path d="M384.43349,197.71898c2.40455,0 4.35382,2.35331 4.35382,5.25626v74.04954c0,2.90295 -1.94928,5.25626 -4.35382,5.25626h-288.86697c-2.40455,0 -4.35382,-2.35331 -4.35382,-5.25626v-74.04954c0,-2.90295 1.94928,-5.25626 4.35382,-5.25626z" data-paper-data="{&quot;index&quot;:null}" fill="url(#color-2)" stroke-width="0"/><path d="M104.91689,273.95295c-2.24888,0 -4.07197,-1.88978 -4.07197,-4.22094v-59.46402c0,-2.33116 1.82308,-4.22094 4.07197,-4.22094h270.16622c2.24888,0 4.07197,1.88978 4.07197,4.22094v59.46402c0,2.33116 -1.82308,4.22094 -4.07197,4.22094z" data-paper-data="{&quot;index&quot;:null}" fill="url(#color-3)" stroke-width="0"/><text transform="translate(225.3513,255.31225) scale(1.27602,1.27602)" font-size="40" xml:space="preserve" fill="#f4f4f4" fill-rule="nonzero" stroke="none" stroke-width="1" stroke-linecap="butt" stroke-linejoin="miter" stroke-miterlimit="10" stroke-dasharray="" stroke-dashoffset="0" font-family="Sans Serif" font-weight="normal" text-anchor="start" style="mix-blend-mode: normal"><tspan x="0" dy="0">Z</tspan></text></g></g></svg>