<svg version="1.1" xmlns="http://www.w3.org/2000/svg" xmlns:xlink="http://www.w3.org/1999/xlink" width="77.99999" height="78.00001" viewBox="0,0,77.99999,78.00001"><defs><linearGradient x1="240" y1="219" x2="240" y2="141" gradientUnits="userSpaceOnUse" id="color-1"><stop offset="0" stop-color="#363636"/><stop offset="1" stop-color="#747474"/></linearGradient><linearGradient x1="240" y1="148" x2="240" y2="212" gradientUnits="userSpaceOnUse" id="color-2"><stop offset="0" stop-color="#363636"/><stop offset="1" stop-color="#747474"/></linearGradient></defs><g transform="translate(-201.00002,-141)"><g data-paper-data="{&quot;isPaintingLayer&quot;:true}" fill-rule="nonzero" stroke="none" stroke-width="0" stroke-linecap="butt" stroke-linejoin="miter" stroke-miterlimit="10" stroke-dasharray="" stroke-dashoffset="0" style="mix-blend-mode: normal"><path d="M267.42188,141c6.39442,0 11.57813,5.1837 11.57813,11.57813v54.84375c0,6.39442 -5.1837,11.57813 -11.57812,11.57813h-54.84375c-6.39442,0 -11.57812,-5.1837 -11.57812,-11.57812v-54.84375c0,-6.39442 5.1837,-11.57812 11.57812,-11.57812z" data-paper-data="{&quot;index&quot;:null}" fill="url(#color-1)"/><path d="M217.5,212c-5.24671,0 -9.5,-4.25329 -9.5,-9.5v-45c0,-5.24671 4.25329,-9.5 9.5,-9.5h45c5.24671,0 9.5,4.25329 9.5,9.5v45c0,5.24671 -4.25329,9.5 -9.5,9.5z" fill="url(#color-2)"/><path d="M262,189.10345h-21.24138v13.65517l-22.75862,-22.75862l22.75862,-22.75862v13.65517h21.24138z" fill="#3c3cf1"/></g></g></svg>