<svg version="1.1" xmlns="http://www.w3.org/2000/svg" xmlns:xlink="http://www.w3.org/1999/xlink" width="206.00001" height="206" viewBox="0,0,206.00001,206"><defs><linearGradient x1="98.57865" y1="180.00001" x2="240" y2="321.42137" gradientUnits="userSpaceOnUse" id="color-1"><stop offset="0" stop-color="#454545"/><stop offset="1" stop-color="#999999"/></linearGradient><linearGradient x1="98.57865" y1="180.00001" x2="240" y2="321.42137" gradientUnits="userSpaceOnUse" id="color-2"><stop offset="0" stop-color="#666666"/><stop offset="1" stop-color="#212121"/></linearGradient><radialGradient cx="240" cy="180" r="91.5" gradientUnits="userSpaceOnUse" id="color-3"><stop offset="0" stop-color="#ff6969"/><stop offset="1" stop-color="#bf0000"/></radialGradient></defs><g transform="translate(-137,-77.00001)"><g data-paper-data="{&quot;isPaintingLayer&quot;:true}" fill-rule="nonzero" stroke-linecap="butt" stroke-linejoin="miter" stroke-miterlimit="10" stroke-dasharray="" stroke-dashoffset="0" style="mix-blend-mode: normal"><path d="M310.71068,109.28933c39.05243,39.05243 39.05243,102.36893 0,141.42136c-39.05243,39.05243 -102.36893,39.05243 -141.42136,0c-39.05243,-39.05243 -39.05243,-102.36893 0,-141.42136c39.05243,-39.05243 102.36893,-39.05243 141.42136,0z" fill="url(#color-1)" stroke="url(#color-2)" stroke-width="6"/><path d="M175.29974,244.70026c-35.73298,-35.73298 -35.73298,-93.66757 0,-129.40054c35.73298,-35.73297 93.66756,-35.73297 129.40054,0c35.73297,35.73298 35.73297,93.66757 0,129.40054c-35.73297,35.73298 -93.66756,35.73298 -129.40054,0z" fill="url(#color-3)" stroke="none" stroke-width="1"/></g></g></svg>