<svg xmlns="http://www.w3.org/2000/svg" xmlns:xlink="http://www.w3.org/1999/xlink" width="163.448" height="165.703" version="1.1" viewBox="0 0 163.448 165.703"><defs><linearGradient id="color-1" x1="167.5" x2="312.5" y1="180" y2="180" gradientUnits="userSpaceOnUse"><stop offset="0" stop-color="#4a4a4a"/><stop offset="1" stop-color="#a9a9a9"/></linearGradient><linearGradient id="color-2" x1="158.276" x2="321.724" y1="180" y2="180" gradientUnits="userSpaceOnUse"><stop offset="0" stop-color="#4a4a4a"/><stop offset="1" stop-color="#a9a9a9"/></linearGradient></defs><g><g fill-rule="nonzero" stroke-dashoffset="0" stroke-linecap="butt" stroke-linejoin="miter" stroke-miterlimit="10" data-paper-data="{&quot;isPaintingLayer&quot;:true}" style="mix-blend-mode:normal"><path fill="#000" fill-opacity=".62" stroke="url(#color-1)" stroke-width="2.5" d="M312.5,180c0,40.04064 -32.45936,72.5 -72.5,72.5c-40.04064,0 -72.5,-32.45936 -72.5,-72.5c0,-40.04064 32.45936,-72.5 72.5,-72.5c40.04064,0 72.5,32.45936 72.5,72.5z" transform="translate(-158.2758,-97.14857)"/><path fill="#000" fill-opacity=".012" stroke="url(#color-2)" stroke-width="0" d="M321.7242,180c0,45.75758 -36.58917,82.85143 -81.7242,82.85143c-45.13503,0 -81.7242,-37.09384 -81.7242,-82.85143c0,-45.75758 36.58917,-82.85143 81.7242,-82.85143c45.13503,0 81.7242,37.09384 81.7242,82.85143z" transform="translate(-158.2758,-97.14857)"/></g></g></svg>