<svg version="1.1" xmlns="http://www.w3.org/2000/svg" xmlns:xlink="http://www.w3.org/1999/xlink" width="77.99999" height="78.00001" viewBox="0,0,77.99999,78.00001"><defs><linearGradient x1="240" y1="219" x2="240" y2="141" gradientUnits="userSpaceOnUse" id="color-1"><stop offset="0" stop-color="#363636"/><stop offset="1" stop-color="#747474"/></linearGradient><linearGradient x1="240" y1="148" x2="240" y2="212" gradientUnits="userSpaceOnUse" id="color-2"><stop offset="0" stop-color="#363636"/><stop offset="1" stop-color="#747474"/></linearGradient></defs><g transform="translate(-201.00002,-141)"><g data-paper-data="{&quot;isPaintingLayer&quot;:true}" fill-rule="nonzero" stroke-linecap="butt" stroke-linejoin="miter" stroke-miterlimit="10" stroke-dasharray="" stroke-dashoffset="0" style="mix-blend-mode: normal"><path d="M267.42188,141c6.39442,0 11.57813,5.1837 11.57813,11.57813v54.84375c0,6.39442 -5.1837,11.57813 -11.57812,11.57813h-54.84375c-6.39442,0 -11.57812,-5.1837 -11.57812,-11.57812v-54.84375c0,-6.39442 5.1837,-11.57812 11.57812,-11.57812z" data-paper-data="{&quot;index&quot;:null}" fill="url(#color-1)" stroke="none" stroke-width="0"/><path d="M217.5,212c-5.24671,0 -9.5,-4.25329 -9.5,-9.5v-45c0,-5.24671 4.25329,-9.5 9.5,-9.5h45c5.24671,0 9.5,4.25329 9.5,9.5v45c0,5.24671 -4.25329,9.5 -9.5,9.5z" fill="url(#color-2)" stroke="none" stroke-width="0"/><path d="M261.51117,180.00009c0,11.85081 -9.64705,21.49786 -21.49786,21.49786c-11.85081,0 -21.49786,-9.64705 -21.49786,-21.49786c0,-5.8041 2.31407,-11.0831 6.06453,-14.95503h-4.19515c-0.67416,0.00953 -1.30124,-0.34467 -1.6411,-0.92697c-0.33987,-0.58231 -0.33987,-1.3025 0,-1.88481c0.33987,-0.58231 0.96694,-0.93651 1.6411,-0.92697h9.34689c1.03239,0.0001 1.86928,0.83699 1.86938,1.86938v9.34689c0.00953,0.67416 -0.34467,1.30124 -0.92697,1.6411c-0.58231,0.33987 -1.3025,0.33987 -1.88481,0c-0.58231,-0.33987 -0.93651,-0.96694 -0.92697,-1.6411v-5.46939c-3.45125,3.23818 -5.60814,7.82937 -5.60814,12.94691c0,9.83025 7.92885,17.7591 17.7591,17.7591c9.83025,0 17.7591,-7.92885 17.7591,-17.7591c0,-9.83025 -7.92885,-17.7591 -17.7591,-17.7591c-0.67416,0.00953 -1.30124,-0.34467 -1.6411,-0.92697c-0.33987,-0.58231 -0.33987,-1.3025 0,-1.88481c0.33987,-0.58231 0.96694,-0.93651 1.6411,-0.92697c11.85081,0 21.49786,9.64705 21.49786,21.49786z" fill="#3c3cf1" stroke="#3c3cf1" stroke-width="4"/></g></g></svg>