<svg version="1.1" xmlns="http://www.w3.org/2000/svg" xmlns:xlink="http://www.w3.org/1999/xlink" width="206.00001" height="218.53905" viewBox="0,0,206.00001,218.53905"><defs><linearGradient x1="98.57865" y1="240.00001" x2="240" y2="381.42137" gradientUnits="userSpaceOnUse" id="color-1"><stop offset="0" stop-color="#454545"/><stop offset="1" stop-color="#999999"/></linearGradient><linearGradient x1="98.57865" y1="240.00001" x2="240" y2="381.42137" gradientUnits="userSpaceOnUse" id="color-2"><stop offset="0" stop-color="#666666"/><stop offset="1" stop-color="#212121"/></linearGradient><linearGradient x1="353.13709" y1="240.00001" x2="240" y2="126.86293" gradientUnits="userSpaceOnUse" id="color-3"><stop offset="0" stop-color="#363636"/><stop offset="1" stop-color="#999999"/></linearGradient></defs><g transform="translate(-136.99999,-124.46096)"><g data-paper-data="{&quot;isPaintingLayer&quot;:true}" fill-rule="nonzero" stroke-linecap="butt" stroke-linejoin="miter" stroke-miterlimit="10" stroke-dasharray="" stroke-dashoffset="0" style="mix-blend-mode: normal"><path d="M310.71068,169.28933c39.05243,39.05243 39.05243,102.36893 0,141.42136c-39.05243,39.05243 -102.36893,39.05243 -141.42136,0c-39.05243,-39.05243 -39.05243,-102.36893 0,-141.42136c39.05243,-39.05243 102.36893,-39.05243 141.42136,0z" fill="url(#color-1)" stroke="url(#color-2)" stroke-width="6"/><path d="M183.43146,296.56855c-31.24195,-31.24195 -31.24195,-81.89514 0,-113.13708c31.24195,-31.24194 81.89513,-31.24194 113.13708,0c31.24194,31.24195 31.24194,81.89514 0,113.13708c-31.24194,31.24195 -81.89513,31.24195 -113.13708,0z" fill="url(#color-3)" stroke="none" stroke-width="1"/><text transform="translate(216.58315,282.63392) scale(3.63616,3.63616)" font-size="40" xml:space="preserve" fill="#ebebeb" fill-rule="nonzero" stroke="none" stroke-width="1" stroke-linecap="butt" stroke-linejoin="miter" stroke-miterlimit="10" stroke-dasharray="" stroke-dashoffset="0" font-family="Sans Serif" font-weight="normal" text-anchor="start" style="mix-blend-mode: normal"><tspan x="0" dy="0">-</tspan></text></g></g></svg>