<svg version="1.1" xmlns="http://www.w3.org/2000/svg" xmlns:xlink="http://www.w3.org/1999/xlink" width="202.4819" height="202.89178" viewBox="0,0,202.4819,202.89178"><g transform="translate(-138.75905,-78.55411)"><g data-paper-data="{&quot;isPaintingLayer&quot;:true}" stroke="none" stroke-linecap="butt" stroke-linejoin="miter" stroke-miterlimit="10" stroke-dasharray="" stroke-dashoffset="0" style="mix-blend-mode: normal"><path d="M341.24095,180c0,56.02702 -45.32712,101.44589 -101.24095,101.44589c-55.91383,0 -101.24095,-45.41887 -101.24095,-101.44589c0,-56.02702 45.32712,-101.44589 101.24095,-101.44589c55.91383,0 101.24095,45.41887 101.24095,101.44589z" fill="#121212" fill-rule="nonzero" stroke-width="0"/><path d="M301.38835,205.60125c-2.44173,3.08056 -8.42396,5.27811 -8.42396,5.27811l-44.50195,15.98481v-11.78844l32.75041,-11.6692c3.71654,-1.33159 4.28722,-3.214 1.26629,-4.20205c-3.01525,-0.99089 -8.47507,-0.70696 -12.19445,0.63031l-21.82225,7.68577v-12.2342l1.25778,-0.42588c0,0 6.30591,-2.23163 15.1728,-3.214c8.86689,-0.97669 19.72406,0.13344 28.24741,3.36448c9.60508,3.03513 10.68682,7.50974 8.24794,10.59029zM252.69855,185.52796v-30.14684c0,-3.54051 -0.65302,-6.79993 -3.97491,-7.72268c-2.54394,-0.81486 -4.12255,1.54737 -4.12255,5.08504v75.49488l-20.36005,-6.46206v-90.01465c8.65678,1.607 21.2686,5.40588 28.04866,7.69145c17.24259,5.91977 23.08854,13.28755 23.08854,29.88847c0,16.18072 -9.98838,22.31343 -22.67969,16.1864zM186.88258,213.84351c-9.86061,-2.77676 -11.50168,-8.56309 -7.0072,-11.89633c4.15378,-3.07771 11.21776,-5.39452 11.21776,-5.39452l29.19286,-10.38019v11.83387l-21.00739,7.51826c-3.71086,1.33159 -4.28154,3.21684 -1.26629,4.20489c3.01809,0.98804 8.48075,0.70696 12.19729,-0.62747l10.07639,-3.65692v10.58746c-0.63882,0.11357 -1.35147,0.22713 -2.01017,0.33787c-10.07923,1.64675 -20.81432,0.95966 -31.39326,-2.52691zM294.90357,218.53106c1.27481,0 2.47012,0.49403 3.37015,1.40542c0.90004,0.89719 1.3969,2.09535 1.3969,3.36732c0,1.27765 -0.49686,2.47012 -1.3969,3.36732c-0.90003,0.90571 -2.09534,1.39973 -3.37015,1.39973c-1.27481,0 -2.46729,-0.49403 -3.37016,-1.39973c-0.90003,-0.8972 -1.39405,-2.08967 -1.39405,-3.36732c0,-2.62912 2.13509,-4.77273 4.76421,-4.77273zM290.94001,223.30379c0,1.05903 0.41169,2.05559 1.16124,2.79947c0.74671,0.75523 1.74612,1.16408 2.80231,1.16408c2.18903,0 3.96355,-1.77735 3.96355,-3.96355c0,-1.06187 -0.40884,-2.05843 -1.16124,-2.80515c-0.74672,-0.75523 -1.74612,-1.16124 -2.80231,-1.16124c-1.05619,0 -2.0556,0.40601 -2.80231,1.16124c-0.74956,0.74672 -1.16124,1.74328 -1.16124,2.80515zM296.34305,220.7343c0.52242,0.22997 0.78646,0.67289 0.78646,1.3032c0,0.32367 -0.06814,0.59624 -0.20726,0.80918c-0.09937,0.15331 -0.24134,0.27824 -0.40033,0.38613c0.12492,0.07383 0.23566,0.16184 0.318,0.26405c0.11356,0.14764 0.17886,0.38329 0.18739,0.70412l0.02557,0.67857c0.00852,0.18171 0.01989,0.32083 0.0483,0.40601c0.02841,0.12492 0.08234,0.20443 0.15047,0.22998l0.07098,0.03409v0.07666v0.11641v0.11641h-0.11641h-0.84325h-0.06814l-0.03409,-0.0596c-0.02841,-0.05676 -0.04823,-0.12208 -0.06814,-0.20726c-0.0142,-0.07666 -0.02841,-0.2101 -0.03693,-0.41453l-0.04261,-0.84325c-0.01136,-0.29244 -0.11073,-0.47415 -0.29812,-0.57068c-0.11641,-0.05391 -0.30948,-0.07949 -0.57068,-0.07949h-1.44516v2.05843v0.11641h-0.11925h-0.6871h-0.1164v-0.11641v-5.07369v-0.11641h0.1164h2.34804c0.40318,0 0.74104,0.0596 1.00225,0.1817zM293.79911,222.87223h1.47071c0.29528,0 0.53093,-0.05398 0.69845,-0.16467c0.15332,-0.11073 0.22714,-0.31232 0.22714,-0.60475c0,-0.31799 -0.10505,-0.52526 -0.32651,-0.63598c-0.12208,-0.0596 -0.29244,-0.09369 -0.50823,-0.09369h-1.56157z" fill="#ffffff" fill-rule="evenodd" stroke-width="1"/></g></g></svg>