<svg version="1.1" xmlns="http://www.w3.org/2000/svg" xmlns:xlink="http://www.w3.org/1999/xlink" width="245" height="240" viewBox="0,0,245,240"><defs><linearGradient x1="98.57865" y1="180" x2="240" y2="321.42136" gradientUnits="userSpaceOnUse" id="color-1"><stop offset="0" stop-color="#154515"/><stop offset="1" stop-color="#469946"/></linearGradient><linearGradient x1="98.57865" y1="180" x2="240" y2="321.42136" gradientUnits="userSpaceOnUse" id="color-2"><stop offset="0" stop-color="#366636"/><stop offset="1" stop-color="#012101"/></linearGradient><linearGradient x1="353.13709" y1="180" x2="240" y2="66.86292" gradientUnits="userSpaceOnUse" id="color-3"><stop offset="0" stop-color="#163616"/><stop offset="1" stop-color="#319931"/></linearGradient></defs><g transform="translate(-117.5,-60)"><g data-paper-data="{&quot;isPaintingLayer&quot;:true}" fill-rule="nonzero" stroke-linecap="butt" stroke-linejoin="miter" stroke-miterlimit="10" stroke-dasharray="" stroke-dashoffset="0" style="mix-blend-mode: normal"><path d="M362.5,180c0,66.27417 -54.84512,120 -122.5,120c-67.65488,0 -122.5,-53.72583 -122.5,-120c0,-66.27417 54.84512,-120 122.5,-120c67.65488,0 122.5,53.72583 122.5,120z" fill-opacity="0.01176" fill="#000000" stroke="none" stroke-width="0"/><path d="M310.71068,109.28932c39.05243,39.05243 39.05243,102.36893 0,141.42136c-39.05243,39.05243 -102.36893,39.05243 -141.42136,0c-39.05243,-39.05243 -39.05243,-102.36893 0,-141.42136c39.05243,-39.05243 102.36893,-39.05243 141.42136,0z" fill="url(#color-1)" stroke="url(#color-2)" stroke-width="6"/><path d="M183.43146,236.56854c-31.24195,-31.24195 -31.24195,-81.89514 0,-113.13708c31.24195,-31.24194 81.89513,-31.24194 113.13708,0c31.24194,31.24195 31.24194,81.89514 0,113.13708c-31.24194,31.24195 -81.89513,31.24195 -113.13708,0z" fill="url(#color-3)" stroke="none" stroke-width="1"/><text transform="translate(192.62383,223.33188) scale(3.61099,3.61099)" font-size="40" xml:space="preserve" fill="#ffffff" fill-rule="nonzero" stroke="none" stroke-width="1" stroke-linecap="butt" stroke-linejoin="miter" stroke-miterlimit="10" stroke-dasharray="" stroke-dashoffset="0" font-family="Sans Serif" font-weight="normal" text-anchor="start" style="mix-blend-mode: normal"><tspan x="0" dy="0">B</tspan></text></g></g></svg>