<svg version="1.1" xmlns="http://www.w3.org/2000/svg" xmlns:xlink="http://www.w3.org/1999/xlink" width="205.6868" height="205.80102" viewBox="0,0,205.6868,205.80102"><g transform="translate(-137.1566,-77.09949)"><g data-paper-data="{&quot;isPaintingLayer&quot;:true}" fill-rule="nonzero" stroke="none" stroke-linecap="butt" stroke-linejoin="miter" stroke-miterlimit="10" stroke-dasharray="" stroke-dashoffset="0" style="mix-blend-mode: normal"><path d="M341.24095,180c0,56.02702 -45.32712,101.44589 -101.24095,101.44589c-55.91383,0 -101.24095,-45.41887 -101.24095,-101.44589c0,-56.02702 45.32712,-101.44589 101.24095,-101.44589c55.91383,0 101.24095,45.41887 101.24095,101.44589z" fill="#003e05" stroke-width="0"/><path d="M229.7443,282.47778c-15.84498,-1.51804 -31.88601,-7.2077 -45.66549,-16.19879c-11.54666,-7.53043 -14.15242,-10.63106 -14.15242,-16.81079c0,-12.41444 13.65041,-34.16186 37.00669,-58.94774c13.26074,-14.08071 31.73539,-30.57594 33.73155,-30.13128c3.88714,0.86779 34.9412,31.15925 46.56915,45.42166c18.38382,22.54347 26.83225,41.00857 22.5387,49.23946c-3.26319,6.25623 -23.51646,18.48661 -38.39325,23.18417c-12.26385,3.8728 -28.3694,5.51275 -41.63491,4.24334zM154.33002,236.56128c-9.59593,-14.7214 -14.44408,-29.21329 -16.7821,-50.17419c-0.77456,-6.92083 -0.50203,-10.87728 1.75232,-25.0871c2.8042,-17.69053 12.88541,-38.1781 25.00581,-50.77661c5.15894,-5.35498 5.61795,-5.49841 11.91004,-3.37076c7.62605,2.58187 15.77805,8.21414 28.4244,19.65083l7.38699,6.67937l-4.04014,4.94857c-18.71371,22.9738 -38.46496,55.55785 -45.89978,75.71071c-4.04014,10.94901 -5.66575,21.94583 -3.9206,26.52385c1.17141,3.09345 0.09562,1.94118 -3.84888,-4.09752zM322.75588,239.06426c0.94907,-4.62822 -0.25101,-13.12446 -3.05999,-21.6972c-6.08411,-18.56311 -26.42584,-53.09552 -45.1037,-76.57611l-5.8809,-7.39178l6.36381,-5.84027c8.30498,-7.62605 14.07115,-12.19212 20.29631,-16.07209c4.90793,-3.05999 11.92438,-5.76854 14.94133,-5.76854c1.85751,0 8.4054,6.81325 13.68865,14.22415c8.18546,11.47494 14.20503,25.41222 17.25545,39.89933c1.97225,9.3712 2.13722,29.40455 0.31795,38.75184c-1.50609,7.66909 -4.66169,17.60926 -7.72168,24.35318c-2.31889,5.05136 -8.03246,14.86483 -10.54261,18.05868c-1.29092,1.64235 -1.29092,1.63995 -0.57374,-1.90292zM231.44164,102.21361c-8.62055,-4.37483 -21.91713,-9.07238 -29.2611,-10.33941c-2.5723,-0.44226 -6.96385,-0.69328 -9.7537,-0.54984c-6.0626,0.30599 -5.79246,-0.00957 3.92778,-4.60192c8.08028,-3.81781 14.8218,-6.0626 23.97785,-7.98466c10.29159,-2.16351 29.6436,-2.18741 39.77263,-0.05259c10.93705,2.30694 23.82007,7.10013 31.07797,11.57057l2.16111,1.32441l-4.94857,-0.24863c-9.83977,-0.49724 -24.17866,3.47834 -39.57421,10.96575c-4.64257,2.26153 -8.67792,4.06403 -8.97436,4.01623c-0.29405,-0.05738 -4.07838,-1.90054 -8.41497,-4.09989z" fill="#ffffff" stroke-width="1"/></g></g></svg>